<svg width="694" height="196" viewBox="0 0 694 196" fill="none" xmlns="http://www.w3.org/2000/svg">
<path d="M95.1172 20.1353V81.2759H90.2881V20.1353H95.1172ZM126.695 20.1353L104.733 48.144L93.3955 61.2876L92.8496 55.3667L101.794 44.2808L120.732 20.1353H126.695ZM122.538 81.2759L101.416 49.9497L104.314 45.6245L128.375 81.2759H122.538ZM175.521 44.1128V57.3403C175.521 61.3436 175.059 64.8989 174.135 68.0063C173.239 71.0858 171.923 73.6753 170.188 75.7749C168.48 77.8745 166.408 79.4702 163.973 80.562C161.565 81.6258 158.836 82.1577 155.784 82.1577C152.789 82.1577 150.073 81.6258 147.638 80.562C145.202 79.4702 143.117 77.8745 141.381 75.7749C139.645 73.6753 138.301 71.0858 137.35 68.0063C136.426 64.8989 135.964 61.3436 135.964 57.3403V44.1128C135.964 40.0815 136.426 36.5122 137.35 33.4048C138.273 30.2974 139.589 27.7078 141.297 25.6362C143.033 23.5646 145.118 21.9969 147.554 20.9331C149.989 19.8413 152.705 19.2954 155.7 19.2954C158.78 19.2954 161.537 19.8413 163.973 20.9331C166.408 21.9969 168.48 23.5646 170.188 25.6362C171.923 27.7078 173.239 30.2974 174.135 33.4048C175.059 36.5122 175.521 40.0815 175.521 44.1128ZM170.733 57.3403V44.0288C170.733 40.6974 170.397 37.772 169.726 35.2524C169.082 32.7329 168.13 30.6333 166.87 28.9536C165.61 27.2739 164.043 26.0142 162.167 25.1743C160.291 24.3345 158.136 23.9146 155.7 23.9146C153.349 23.9146 151.235 24.3345 149.359 25.1743C147.512 26.0142 145.944 27.2879 144.656 28.9956C143.397 30.6753 142.431 32.7749 141.759 35.2944C141.087 37.786 140.751 40.6974 140.751 44.0288V57.3403C140.751 60.6997 141.087 63.6392 141.759 66.1587C142.459 68.6502 143.453 70.7498 144.74 72.4575C146.028 74.1372 147.596 75.397 149.443 76.2368C151.319 77.0767 153.433 77.4966 155.784 77.4966C158.22 77.4966 160.361 77.0767 162.209 76.2368C164.085 75.397 165.652 74.1372 166.912 72.4575C168.172 70.7498 169.124 68.6502 169.768 66.1587C170.411 63.6392 170.733 60.6997 170.733 57.3403ZM203.896 81.2759H192.432L192.474 76.7827H203.896C207.563 76.7827 210.684 76.0129 213.26 74.4731C215.835 72.9334 217.795 70.6799 219.139 67.7124C220.51 64.745 221.196 61.1196 221.196 56.8364V44.4487C221.196 41.2013 220.804 38.3459 220.021 35.8823C219.265 33.3908 218.145 31.3192 216.661 29.6675C215.205 27.9878 213.428 26.728 211.328 25.8882C209.229 25.0483 206.863 24.6284 204.231 24.6284H192.18V20.1353H204.231C207.479 20.1353 210.418 20.6672 213.05 21.731C215.709 22.7948 218.005 24.3625 219.937 26.4341C221.868 28.5057 223.352 31.0672 224.388 34.1187C225.424 37.1421 225.941 40.6134 225.941 44.5327V56.8364C225.941 60.7837 225.424 64.283 224.388 67.3345C223.352 70.3579 221.868 72.9054 219.937 74.9771C218.005 77.0487 215.681 78.6164 212.966 79.6802C210.278 80.744 207.255 81.2759 203.896 81.2759ZM194.699 20.1353V81.2759H189.87V20.1353H194.699ZM278.576 23.8306L260.939 81.2759H255.984L275.427 20.1353H278.828L278.576 23.8306ZM294.365 81.2759L276.729 23.8306L276.519 20.1353H279.878L299.362 81.2759H294.365ZM291.636 59.6499V64.1851H264.047V59.6499H291.636ZM341.301 62.1694H346.13C345.85 66.7326 344.94 70.4979 343.4 73.4653C341.861 76.4048 339.719 78.5884 336.976 80.0161C334.26 81.4438 330.971 82.1577 327.107 82.1577C324.168 82.1577 321.522 81.5838 319.171 80.436C316.819 79.2882 314.804 77.6226 313.124 75.439C311.472 73.2554 310.199 70.6239 309.303 67.5444C308.435 64.437 308.001 60.9377 308.001 57.0464V43.9448C308.001 40.1095 308.435 36.6802 309.303 33.6567C310.199 30.6053 311.486 28.0158 313.166 25.8882C314.874 23.7326 316.917 22.0949 319.297 20.9751C321.704 19.8553 324.434 19.2954 327.485 19.2954C331.181 19.2954 334.358 19.9953 337.018 21.395C339.705 22.7948 341.819 24.9644 343.358 27.9038C344.926 30.8433 345.85 34.6366 346.13 39.2837H341.301C341.049 35.5324 340.377 32.5229 339.285 30.2554C338.193 27.9878 336.668 26.3501 334.708 25.3423C332.776 24.3065 330.369 23.7886 327.485 23.7886C325.106 23.7886 323.006 24.2505 321.187 25.1743C319.395 26.0701 317.869 27.3859 316.609 29.1216C315.378 30.8293 314.44 32.9289 313.796 35.4204C313.152 37.884 312.83 40.6974 312.83 43.8608V57.0464C312.83 60.1538 313.138 62.9813 313.754 65.5288C314.37 68.0483 315.266 70.2179 316.441 72.0376C317.645 73.8573 319.129 75.257 320.893 76.2368C322.684 77.1886 324.756 77.6646 327.107 77.6646C330.131 77.6646 332.636 77.1886 334.624 76.2368C336.612 75.285 338.151 73.6893 339.243 71.4497C340.335 69.1821 341.021 66.0887 341.301 62.1694ZM365.351 20.1353V81.2759H360.48V20.1353H365.351ZM386.965 20.1353V81.2759H382.136V20.1353H386.965ZM418.543 20.1353L396.581 48.144L385.243 61.2876L384.697 55.3667L393.642 44.2808L412.58 20.1353H418.543ZM414.386 81.2759L393.264 49.9497L396.161 45.6245L420.223 81.2759H414.386ZM448.388 20.1353V81.2759H443.601V20.1353H448.388ZM465.772 20.1353V24.6284H426.258V20.1353H465.772ZM482.894 20.1353V81.2759H478.022V20.1353H482.894ZM499.595 20.1353H516.35C519.961 20.1353 523.068 20.8351 525.672 22.2349C528.303 23.6066 530.319 25.6362 531.719 28.3237C533.147 30.9832 533.86 34.2586 533.86 38.1499C533.86 41.0334 533.356 43.6509 532.349 46.0024C531.341 48.354 529.941 50.3136 528.149 51.8813C526.386 53.4491 524.314 54.5269 521.935 55.1147L520.339 55.8286H502.87L502.786 51.3354H517.147C519.807 51.3354 522.019 50.7196 523.782 49.4878C525.546 48.228 526.862 46.6043 527.73 44.6167C528.625 42.6011 529.073 40.4455 529.073 38.1499C529.073 35.3784 528.583 32.9849 527.604 30.9692C526.652 28.9536 525.224 27.3999 523.32 26.3081C521.445 25.1883 519.121 24.6284 516.35 24.6284H504.424V81.2759H499.595V20.1353ZM530.963 81.2759L517.819 53.897L522.942 53.855L536.086 80.73V81.2759H530.963ZM554.173 20.1353V81.2759H549.302V20.1353H554.173ZM570.874 20.1353H587.629C591.24 20.1353 594.348 20.8351 596.951 22.2349C599.583 23.6066 601.598 25.6362 602.998 28.3237C604.426 30.9832 605.14 34.2586 605.14 38.1499C605.14 41.0334 604.636 43.6509 603.628 46.0024C602.62 48.354 601.22 50.3136 599.429 51.8813C597.665 53.4491 595.593 54.5269 593.214 55.1147L591.618 55.8286H574.149L574.065 51.3354H588.427C591.086 51.3354 593.298 50.7196 595.062 49.4878C596.825 48.228 598.141 46.6043 599.009 44.6167C599.905 42.6011 600.353 40.4455 600.353 38.1499C600.353 35.3784 599.863 32.9849 598.883 30.9692C597.931 28.9536 596.503 27.3999 594.6 26.3081C592.724 25.1883 590.4 24.6284 587.629 24.6284H575.703V81.2759H570.874V20.1353ZM602.242 81.2759L589.099 53.897L594.222 53.855L607.365 80.73V81.2759H602.242ZM76.0166 148.417H61.5293V143.881H76.0166C79.0121 143.881 81.4336 143.293 83.2813 142.118C85.1289 140.914 86.4727 139.304 87.3125 137.289C88.1804 135.245 88.6143 132.963 88.6143 130.444C88.6143 127.98 88.1804 125.699 87.3125 123.599C86.4727 121.5 85.1289 119.82 83.2813 118.56C81.4336 117.272 79.0121 116.628 76.0166 116.628H63.083V173.276H58.2539V112.135H76.0166C79.7959 112.135 82.9733 112.905 85.5489 114.445C88.1524 115.985 90.112 118.126 91.4278 120.87C92.7715 123.613 93.4434 126.791 93.4434 130.402C93.4434 134.153 92.7715 137.387 91.4278 140.102C90.112 142.79 88.1524 144.847 85.5489 146.275C82.9733 147.703 79.7959 148.417 76.0166 148.417ZM111.824 112.135V173.276H106.953V112.135H111.824ZM105.945 101.847C105.945 100.839 106.239 100.014 106.827 99.3696C107.443 98.6978 108.297 98.3618 109.389 98.3618C110.48 98.3618 111.334 98.6978 111.95 99.3696C112.594 100.014 112.916 100.825 112.916 101.805C112.916 102.757 112.594 103.555 111.95 104.199C111.334 104.843 110.48 105.165 109.389 105.165C108.297 105.165 107.443 104.843 106.827 104.199C106.239 103.555 105.945 102.771 105.945 101.847ZM162.371 168.783V173.276H127.14V168.783H162.371ZM161.237 115.915L128.357 173.276H125.334V169.245L158.172 112.135H161.237V115.915ZM159.18 112.135V116.628H126.174V112.135H159.18ZM208.803 168.783V173.276H173.571V168.783H208.803ZM207.669 115.915L174.789 173.276H171.766V169.245L204.604 112.135H207.669V115.915ZM205.611 112.135V116.628H172.605V112.135H205.611ZM239.319 115.831L221.683 173.276H216.728L236.17 112.135H239.571L239.319 115.831ZM255.108 173.276L237.472 115.831L237.262 112.135H240.621L260.105 173.276H255.108ZM252.379 151.65V156.185H224.79V151.65H252.379ZM274.917 165.255V171.176C274.917 173.724 274.385 176.201 273.321 178.609C272.286 181.044 270.858 183.088 269.038 184.74L266.057 182.514C266.925 181.338 267.638 180.163 268.198 178.987C268.786 177.839 269.22 176.635 269.5 175.375C269.808 174.116 269.962 172.744 269.962 171.26V165.255H274.917ZM323.73 173.276H312.267L312.309 168.783H323.73C327.398 168.783 330.519 168.013 333.095 166.473C335.67 164.933 337.63 162.68 338.974 159.712C340.345 156.745 341.031 153.12 341.031 148.836V136.449C341.031 133.201 340.639 130.346 339.855 127.882C339.1 125.391 337.98 123.319 336.496 121.667C335.04 119.988 333.263 118.728 331.163 117.888C329.064 117.048 326.698 116.628 324.066 116.628H312.015V112.135H324.066C327.314 112.135 330.253 112.667 332.885 113.731C335.544 114.795 337.84 116.362 339.772 118.434C341.703 120.506 343.187 123.067 344.223 126.119C345.258 129.142 345.776 132.613 345.776 136.533V148.836C345.776 152.784 345.258 156.283 344.223 159.334C343.187 162.358 341.703 164.905 339.772 166.977C337.84 169.049 335.516 170.616 332.801 171.68C330.113 172.744 327.09 173.276 323.73 173.276ZM314.534 112.135V173.276H309.705V112.135H314.534ZM398.129 136.113V149.34C398.129 153.344 397.667 156.899 396.743 160.006C395.847 163.086 394.532 165.675 392.796 167.775C391.088 169.875 389.017 171.47 386.581 172.562C384.174 173.626 381.444 174.158 378.393 174.158C375.397 174.158 372.682 173.626 370.246 172.562C367.811 171.47 365.725 169.875 363.989 167.775C362.254 165.675 360.91 163.086 359.958 160.006C359.034 156.899 358.572 153.344 358.572 149.34V136.113C358.572 132.082 359.034 128.512 359.958 125.405C360.882 122.297 362.198 119.708 363.905 117.636C365.641 115.565 367.727 113.997 370.162 112.933C372.598 111.841 375.313 111.295 378.309 111.295C381.388 111.295 384.146 111.841 386.581 112.933C389.017 113.997 391.088 115.565 392.796 117.636C394.532 119.708 395.847 122.297 396.743 125.405C397.667 128.512 398.129 132.082 398.129 136.113ZM393.342 149.34V136.029C393.342 132.697 393.006 129.772 392.334 127.252C391.69 124.733 390.738 122.633 389.479 120.954C388.219 119.274 386.651 118.014 384.775 117.174C382.9 116.334 380.744 115.915 378.309 115.915C375.957 115.915 373.843 116.334 371.968 117.174C370.12 118.014 368.552 119.288 367.265 120.996C366.005 122.675 365.039 124.775 364.367 127.294C363.695 129.786 363.359 132.697 363.359 136.029V149.34C363.359 152.7 363.695 155.639 364.367 158.159C365.067 160.65 366.061 162.75 367.349 164.458C368.636 166.137 370.204 167.397 372.052 168.237C373.927 169.077 376.041 169.497 378.393 169.497C380.828 169.497 382.97 169.077 384.817 168.237C386.693 167.397 388.261 166.137 389.521 164.458C390.78 162.75 391.732 160.65 392.376 158.159C393.02 155.639 393.342 152.7 393.342 149.34ZM410.631 112.135L425.79 145.309L441.033 112.135H446.576L428.184 150.264V173.276H423.397V150.264L405.004 112.135H410.631ZM483.812 112.135H488.599V155.219C488.599 159.81 487.773 163.492 486.121 166.263C484.497 169.007 482.3 171.008 479.528 172.268C476.785 173.528 473.747 174.158 470.416 174.158C467.001 174.158 463.921 173.542 461.178 172.31C458.434 171.05 456.265 169.035 454.669 166.263C453.073 163.492 452.275 159.81 452.275 155.219V112.135H457.063V155.219C457.063 158.775 457.636 161.616 458.784 163.744C459.932 165.843 461.514 167.355 463.529 168.279C465.545 169.203 467.841 169.665 470.416 169.665C473.048 169.665 475.357 169.203 477.345 168.279C479.36 167.327 480.942 165.801 482.09 163.702C483.238 161.602 483.812 158.775 483.812 155.219V112.135ZM503.578 112.135H520.333C523.944 112.135 527.052 112.835 529.655 114.235C532.287 115.607 534.302 117.636 535.702 120.324C537.13 122.983 537.844 126.259 537.844 130.15C537.844 133.033 537.34 135.651 536.332 138.002C535.324 140.354 533.925 142.314 532.133 143.881C530.369 145.449 528.298 146.527 525.918 147.115L524.322 147.829H506.854L506.77 143.335H521.131C523.79 143.335 526.002 142.72 527.766 141.488C529.529 140.228 530.845 138.604 531.713 136.617C532.609 134.601 533.057 132.445 533.057 130.15C533.057 127.378 532.567 124.985 531.587 122.969C530.635 120.954 529.207 119.4 527.304 118.308C525.428 117.188 523.105 116.628 520.333 116.628H508.407V173.276H503.578V112.135ZM534.946 173.276L521.803 145.897L526.926 145.855L540.069 172.73V173.276H534.946ZM583.142 112.135H587.929V155.219C587.929 159.81 587.103 163.492 585.451 166.263C583.827 169.007 581.63 171.008 578.858 172.268C576.115 173.528 573.077 174.158 569.746 174.158C566.331 174.158 563.251 173.542 560.508 172.31C557.764 171.05 555.595 169.035 553.999 166.263C552.403 163.492 551.605 159.81 551.605 155.219V112.135H556.393V155.219C556.393 158.775 556.966 161.616 558.114 163.744C559.262 165.843 560.844 167.355 562.859 168.279C564.875 169.203 567.171 169.665 569.746 169.665C572.378 169.665 574.687 169.203 576.675 168.279C578.69 167.327 580.272 165.801 581.42 163.702C582.568 161.602 583.142 158.775 583.142 155.219V112.135ZM602.908 112.135H619.663C623.274 112.135 626.382 112.835 628.985 114.235C631.617 115.607 633.632 117.636 635.032 120.324C636.46 122.983 637.174 126.259 637.174 130.15C637.174 133.033 636.67 135.651 635.662 138.002C634.654 140.354 633.255 142.314 631.463 143.881C629.699 145.449 627.628 146.527 625.248 147.115L623.652 147.829H606.184L606.1 143.335H620.461C623.12 143.335 625.332 142.72 627.096 141.488C628.859 140.228 630.175 138.604 631.043 136.617C631.939 134.601 632.387 132.445 632.387 130.15C632.387 127.378 631.897 124.985 630.917 122.969C629.965 120.954 628.537 119.4 626.634 118.308C624.758 117.188 622.435 116.628 619.663 116.628H607.737V173.276H602.908V112.135ZM634.276 173.276L621.133 145.897L626.256 145.855L639.399 172.73V173.276H634.276Z" fill="white"/>
</svg>
