<svg width="362" height="46" viewBox="0 0 362 46" fill="none" xmlns="http://www.w3.org/2000/svg">
<path d="M352.666 12.65C352.7 12.75 352.716 12.9167 352.716 13.15C352.85 13.0833 353.15 12.95 353.616 12.75C354.116 12.55 354.6 12.3667 355.066 12.2C355.7 12 356.416 11.85 357.216 11.75C358.016 11.6167 358.766 11.5333 359.466 11.5C360.166 11.4667 360.75 11.4667 361.216 11.5C361.716 11.5 361.966 11.5167 361.966 11.55C361.966 12.6833 361.95 13.6833 361.916 14.55C361.916 15.4167 361.916 16.2 361.916 16.9C361.916 17.5667 361.916 18.1833 361.916 18.75C361.916 19.3167 361.933 19.85 361.966 20.35L361.516 20.2C361.35 20.1333 361.166 20.0833 360.966 20.05C360.8 19.9833 360.633 19.9167 360.466 19.85C360.066 19.75 359.65 19.6667 359.216 19.6C358.816 19.5333 358.6 19.5 358.566 19.5C357.666 19.4 356.833 19.35 356.066 19.35C355.333 19.35 354.683 19.4667 354.116 19.7C353.583 19.9333 353.166 20.3 352.866 20.8C352.566 21.3 352.433 22.0167 352.466 22.95C352.5 24.1167 352.533 25.2167 352.566 26.25C352.6 27.2833 352.616 28.3333 352.616 29.4C352.616 30.4333 352.616 31.5 352.616 32.6C352.65 33.6667 352.666 34.8167 352.666 36.05V36.25C352.1 36.4167 351.583 36.5167 351.116 36.55C350.65 36.5833 350.166 36.5833 349.666 36.55C349.166 36.55 348.616 36.5333 348.016 36.5C347.45 36.4667 346.766 36.4833 345.966 36.55C345.966 32.45 345.916 28.35 345.816 24.25C345.75 20.15 345.783 15.9 345.916 11.5C346.316 11.5333 346.65 11.5667 346.916 11.6C347.183 11.6 347.433 11.6 347.666 11.6C347.9 11.6 348.15 11.6 348.416 11.6C348.683 11.5667 349.016 11.5333 349.416 11.5C349.55 11.5 349.783 11.4833 350.116 11.45C350.483 11.4167 350.85 11.3833 351.216 11.35C351.616 11.3167 351.95 11.3167 352.216 11.35C352.516 11.35 352.666 11.3833 352.666 11.45C352.666 11.7167 352.666 11.9167 352.666 12.05C352.666 12.1833 352.666 12.3 352.666 12.4C352.666 12.4667 352.666 12.55 352.666 12.65Z" fill="white"/>
<path d="M331.249 24C330.516 23.9667 329.983 23.9167 329.649 23.85V24.75C329.683 25.75 329.716 26.5667 329.749 27.2C329.816 27.8333 330.033 28.45 330.399 29.05C330.799 29.8167 331.366 30.3833 332.099 30.75C332.833 31.1167 333.549 31.2333 334.249 31.1C334.949 30.9667 335.533 30.5667 335.999 29.9C336.499 29.2 336.716 28.1667 336.649 26.8C336.983 26.8333 337.433 26.85 337.999 26.85C338.566 26.8167 339.149 26.7833 339.749 26.75C340.383 26.7167 340.983 26.7167 341.549 26.75C342.116 26.75 342.583 26.8 342.949 26.9C342.883 27.7667 342.816 28.6167 342.749 29.45C342.683 30.2833 342.599 31.0667 342.499 31.8C342.399 32.5 342.266 33.1167 342.099 33.65C341.966 34.15 341.783 34.5 341.549 34.7C340.983 35.5 340.249 36.0667 339.349 36.4C338.449 36.7333 337.466 36.9333 336.399 37C335.333 37.0667 334.233 37.0667 333.099 37C331.999 36.9333 330.983 36.9 330.049 36.9C329.116 36.7667 328.249 36.4667 327.449 36C326.549 35.3667 325.799 34.55 325.199 33.55C324.599 32.5167 324.116 31.4 323.749 30.2C323.383 28.9667 323.133 27.6667 322.999 26.3C322.866 24.9333 322.833 23.5667 322.899 22.2C322.999 20.9667 323.099 19.7833 323.199 18.65C323.333 17.4833 323.599 16.35 323.999 15.25C324.433 14.2833 325.099 13.4667 325.999 12.8C326.899 12.1 327.916 11.5833 329.049 11.25C330.183 10.8833 331.383 10.6833 332.649 10.65C333.916 10.6167 335.149 10.75 336.349 11.05C337.883 11.3167 339.116 11.85 340.049 12.65C340.983 13.45 341.683 14.4167 342.149 15.55C342.649 16.6833 342.949 17.9333 343.049 19.3C343.149 20.6667 343.149 22.05 343.049 23.45C342.816 23.5167 342.366 23.5833 341.699 23.65C341.066 23.7167 340.299 23.7833 339.399 23.85C338.533 23.9167 337.599 23.9667 336.599 24C335.599 24.0333 334.633 24.05 333.699 24.05C332.799 24.05 331.983 24.0333 331.249 24ZM337.099 17.45C336.766 16.85 336.299 16.4 335.699 16.1C335.433 15.9333 335.166 15.8167 334.899 15.75C334.633 15.65 334.316 15.6 333.949 15.6C333.149 15.6 332.499 15.6833 331.999 15.85C331.499 16.0167 331.099 16.25 330.799 16.55C330.499 16.85 330.266 17.2 330.099 17.6C329.966 18 329.866 18.4167 329.799 18.85C329.733 19.2167 329.699 19.4833 329.699 19.65C329.733 19.7833 329.899 19.8833 330.199 19.95C330.499 19.9833 330.966 20 331.599 20C332.266 19.9667 333.233 19.95 334.499 19.95C335.366 19.95 336.016 19.9667 336.449 20C336.883 20.0333 337.183 20.05 337.349 20.05C337.549 20.0167 337.649 19.9667 337.649 19.9C337.649 19.8 337.649 19.6167 337.649 19.35C337.649 18.6833 337.466 18.05 337.099 17.45Z" fill="white"/>
<path d="M313.047 9.15C313.047 6.11666 313.197 3.08333 313.497 0.0499954L320.297 0.199996C320.297 1.56666 320.28 3.21666 320.247 5.15C320.213 7.08333 320.18 9.14999 320.147 11.35C320.113 13.55 320.08 15.8333 320.047 18.2C320.047 20.5667 320.047 22.85 320.047 25.05C320.047 27.25 320.063 29.3167 320.097 31.25C320.13 33.15 320.18 34.7667 320.247 36.1C320.08 36.3 319.663 36.4 318.997 36.4C318.33 36.4333 317.597 36.4333 316.797 36.4C316.03 36.4 315.297 36.3833 314.597 36.35C313.897 36.3167 313.43 36.3333 313.197 36.4C313.43 33.4 313.513 30.3833 313.447 27.35C313.413 24.3167 313.347 21.2833 313.247 18.25C313.147 15.2167 313.08 12.1833 313.047 9.15Z" fill="white"/>
<path d="M297.018 0C297.585 0 298.085 0.033334 298.518 0.100002V11.05C298.518 12.15 298.485 13.3167 298.418 14.55C298.385 15.7833 298.418 16.7833 298.518 17.55C299.085 17.05 299.568 16.5 299.968 15.9C300.401 15.3 300.801 14.7 301.168 14.1C301.535 13.4667 301.901 12.8333 302.268 12.2C302.668 11.5667 303.118 10.9667 303.618 10.4C304.051 10.5667 304.618 10.6667 305.318 10.7C306.018 10.7 306.735 10.7 307.468 10.7C308.235 10.6667 308.985 10.6333 309.718 10.6C310.451 10.5333 311.051 10.5167 311.518 10.55C310.285 12.45 308.951 14.3333 307.518 16.2C306.085 18.0333 304.668 19.8833 303.268 21.75C304.768 24.1833 306.268 26.6 307.768 29C309.301 31.3667 310.701 33.8333 311.968 36.4C311.501 36.4 310.901 36.4167 310.168 36.45C309.468 36.5167 308.735 36.5667 307.968 36.6C307.201 36.6333 306.451 36.6333 305.718 36.6C305.018 36.5667 304.418 36.5 303.918 36.4C303.418 35.6 302.951 34.7833 302.518 33.95C302.118 33.1167 301.718 32.3 301.318 31.5C300.918 30.6667 300.485 29.85 300.018 29.05C299.585 28.25 299.085 27.4833 298.518 26.75C298.518 27.35 298.535 28.05 298.568 28.85C298.601 29.65 298.618 30.4833 298.618 31.35C298.618 32.2167 298.601 33.1 298.568 34C298.535 34.8667 298.451 35.6667 298.318 36.4C297.951 36.3667 297.485 36.3667 296.918 36.4C296.385 36.4 295.818 36.4167 295.218 36.45C294.618 36.4833 294.001 36.5 293.368 36.5C292.768 36.5 292.218 36.4667 291.718 36.4C291.485 30.2 291.435 24.1167 291.568 18.15C291.701 12.1833 291.751 6.16667 291.718 0.100002C292.218 0.100002 292.768 0.100002 293.368 0.100002C294.001 0.0666669 294.618 0.0499997 295.218 0.0499997C295.851 0.0166668 296.451 0 297.018 0Z" fill="white"/>
<path d="M277.001 24C276.268 23.9667 275.735 23.9167 275.401 23.85V24.75C275.435 25.75 275.468 26.5667 275.501 27.2C275.568 27.8333 275.785 28.45 276.151 29.05C276.551 29.8167 277.118 30.3833 277.851 30.75C278.585 31.1167 279.301 31.2333 280.001 31.1C280.701 30.9667 281.285 30.5667 281.751 29.9C282.251 29.2 282.468 28.1667 282.401 26.8C282.735 26.8333 283.185 26.85 283.751 26.85C284.318 26.8167 284.901 26.7833 285.501 26.75C286.135 26.7167 286.735 26.7167 287.301 26.75C287.868 26.75 288.335 26.8 288.701 26.9C288.635 27.7667 288.568 28.6167 288.501 29.45C288.435 30.2833 288.351 31.0667 288.251 31.8C288.151 32.5 288.018 33.1167 287.851 33.65C287.718 34.15 287.535 34.5 287.301 34.7C286.735 35.5 286.001 36.0667 285.101 36.4C284.201 36.7333 283.218 36.9333 282.151 37C281.085 37.0667 279.985 37.0667 278.851 37C277.751 36.9333 276.735 36.9 275.801 36.9C274.868 36.7667 274.001 36.4667 273.201 36C272.301 35.3667 271.551 34.55 270.951 33.55C270.351 32.5167 269.868 31.4 269.501 30.2C269.135 28.9667 268.885 27.6667 268.751 26.3C268.618 24.9333 268.585 23.5667 268.651 22.2C268.751 20.9667 268.851 19.7833 268.951 18.65C269.085 17.4833 269.351 16.35 269.751 15.25C270.185 14.2833 270.851 13.4667 271.751 12.8C272.651 12.1 273.668 11.5833 274.801 11.25C275.935 10.8833 277.135 10.6833 278.401 10.65C279.668 10.6167 280.901 10.75 282.101 11.05C283.635 11.3167 284.868 11.85 285.801 12.65C286.735 13.45 287.435 14.4167 287.901 15.55C288.401 16.6833 288.701 17.9333 288.801 19.3C288.901 20.6667 288.901 22.05 288.801 23.45C288.568 23.5167 288.118 23.5833 287.451 23.65C286.818 23.7167 286.051 23.7833 285.151 23.85C284.285 23.9167 283.351 23.9667 282.351 24C281.351 24.0333 280.385 24.05 279.451 24.05C278.551 24.05 277.735 24.0333 277.001 24ZM282.851 17.45C282.518 16.85 282.051 16.4 281.451 16.1C281.185 15.9333 280.918 15.8167 280.651 15.75C280.385 15.65 280.068 15.6 279.701 15.6C278.901 15.6 278.251 15.6833 277.751 15.85C277.251 16.0167 276.851 16.25 276.551 16.55C276.251 16.85 276.018 17.2 275.851 17.6C275.718 18 275.618 18.4167 275.551 18.85C275.485 19.2167 275.451 19.4833 275.451 19.65C275.485 19.7833 275.651 19.8833 275.951 19.95C276.251 19.9833 276.718 20 277.351 20C278.018 19.9667 278.985 19.95 280.251 19.95C281.118 19.95 281.768 19.9667 282.201 20C282.635 20.0333 282.935 20.05 283.101 20.05C283.301 20.0167 283.401 19.9667 283.401 19.9C283.401 19.8 283.401 19.6167 283.401 19.35C283.401 18.6833 283.218 18.05 282.851 17.45Z" fill="white"/>
<path d="M241.772 12.85C241.772 13.2167 241.788 13.6333 241.822 14.1C241.988 14 242.188 13.8833 242.422 13.75C242.688 13.6167 242.905 13.4833 243.072 13.35C243.772 12.85 244.555 12.45 245.422 12.15C246.288 11.85 247.172 11.6833 248.072 11.65C249.005 11.6167 249.905 11.7167 250.772 11.95C251.638 12.1833 252.422 12.6 253.122 13.2C253.288 13.3667 253.455 13.65 253.622 14.05C253.788 13.95 253.988 13.85 254.222 13.75C254.455 13.6167 254.655 13.4833 254.822 13.35C255.522 12.85 256.305 12.45 257.172 12.15C258.038 11.85 258.922 11.6833 259.822 11.65C260.755 11.6167 261.655 11.7167 262.522 11.95C263.388 12.1833 264.172 12.6 264.872 13.2C265.205 13.5 265.455 14.1333 265.622 15.1C265.822 16.0333 265.938 17.1667 265.972 18.5C266.038 19.8333 266.055 21.3 266.022 22.9C266.022 24.4667 266.005 26.0667 265.972 27.7C265.938 29.3 265.905 30.85 265.872 32.35C265.838 33.85 265.855 35.1667 265.922 36.3C264.755 36.4667 263.705 36.5333 262.772 36.5C261.872 36.5 260.838 36.5 259.672 36.5C259.605 35.7333 259.572 34.8667 259.572 33.9C259.572 32.9333 259.572 31.9333 259.572 30.9C259.605 29.8667 259.605 28.8333 259.572 27.8C259.572 26.7667 259.538 25.8 259.472 24.9C259.438 24.5 259.405 24.0667 259.372 23.6C259.338 23.1 259.272 22.6167 259.172 22.15C259.105 21.6833 258.988 21.2667 258.822 20.9C258.688 20.5333 258.488 20.25 258.222 20.05C258.188 20.0167 258.155 20 258.122 20C258.088 20 258.055 19.9833 258.022 19.95C257.822 19.85 257.572 19.7667 257.272 19.7C256.972 19.6333 256.638 19.6 256.272 19.6C255.938 19.6 255.588 19.6667 255.222 19.8C254.888 19.9 254.572 20.0667 254.272 20.3C254.305 21.6 254.305 22.9833 254.272 24.45C254.238 25.8833 254.205 27.3167 254.172 28.75C254.138 30.15 254.105 31.5167 254.072 32.85C254.072 34.15 254.105 35.3 254.172 36.3C253.005 36.4667 251.955 36.5333 251.022 36.5C250.122 36.5 249.088 36.5 247.922 36.5C247.855 35.7333 247.822 34.8667 247.822 33.9C247.822 32.9333 247.822 31.9333 247.822 30.9C247.855 29.8667 247.855 28.8333 247.822 27.8C247.822 26.7667 247.788 25.8 247.722 24.9C247.688 24.5 247.655 24.0667 247.622 23.6C247.588 23.1 247.522 22.6167 247.422 22.15C247.355 21.6833 247.238 21.2667 247.072 20.9C246.938 20.5333 246.738 20.25 246.472 20.05C246.438 20.0167 246.405 20 246.372 20C246.338 20 246.305 19.9833 246.272 19.95C246.005 19.8167 245.605 19.7167 245.072 19.65C244.572 19.55 244.072 19.5833 243.572 19.75C243.072 19.8833 242.622 20.1833 242.222 20.65C241.822 21.0833 241.588 21.75 241.522 22.65C241.455 23.8167 241.438 24.9667 241.472 26.1C241.505 27.2 241.538 28.3167 241.572 29.45C241.638 30.55 241.672 31.65 241.672 32.75C241.672 33.85 241.605 34.95 241.472 36.05V36.25C240.905 36.4167 240.405 36.5167 239.972 36.55C239.572 36.5833 239.155 36.5833 238.722 36.55C238.288 36.55 237.805 36.5333 237.272 36.5C236.738 36.4667 236.072 36.4833 235.272 36.55C235.272 32.45 235.222 28.35 235.122 24.25C235.055 20.15 235.088 15.9 235.222 11.5C235.622 11.5333 235.955 11.5667 236.222 11.6C236.488 11.6 236.738 11.6 236.972 11.6C237.205 11.6 237.455 11.6 237.722 11.6C237.988 11.5667 238.322 11.5333 238.722 11.5C238.855 11.5 239.088 11.4833 239.422 11.45C239.755 11.3833 240.088 11.3333 240.422 11.3C240.755 11.2667 241.055 11.2667 241.322 11.3C241.588 11.3 241.722 11.35 241.722 11.45C241.788 12.0167 241.805 12.4833 241.772 12.85Z" fill="white"/>
<path d="M220.605 24C219.872 23.9667 219.338 23.9167 219.005 23.85V24.75C219.038 25.75 219.072 26.5667 219.105 27.2C219.172 27.8334 219.388 28.45 219.755 29.05C220.155 29.8167 220.722 30.3834 221.455 30.75C222.188 31.1167 222.905 31.2334 223.605 31.1C224.305 30.9667 224.888 30.5667 225.355 29.9C225.855 29.2 226.072 28.1667 226.005 26.8C226.338 26.8334 226.788 26.85 227.355 26.85C227.922 26.8167 228.505 26.7834 229.105 26.75C229.738 26.7167 230.338 26.7167 230.905 26.75C231.472 26.75 231.938 26.8 232.305 26.9C232.238 27.7667 232.172 28.6167 232.105 29.45C232.038 30.2834 231.955 31.0667 231.855 31.8C231.755 32.5 231.622 33.1167 231.455 33.65C231.322 34.15 231.138 34.5 230.905 34.7C230.338 35.5 229.605 36.0667 228.705 36.4C227.805 36.7334 226.822 36.9334 225.755 37C224.688 37.0667 223.588 37.0667 222.455 37C221.355 36.9334 220.338 36.9 219.405 36.9C218.472 36.7667 217.605 36.4667 216.805 36C215.905 35.3667 215.155 34.55 214.555 33.55C213.955 32.5167 213.472 31.4 213.105 30.2C212.738 28.9667 212.488 27.6667 212.355 26.3C212.222 24.9334 212.188 23.5667 212.255 22.2C212.355 20.9667 212.455 19.7834 212.555 18.65C212.688 17.4834 212.955 16.35 213.355 15.25C213.788 14.2834 214.455 13.4667 215.355 12.8C216.255 12.1 217.272 11.5834 218.405 11.25C219.538 10.8834 220.738 10.6834 222.005 10.65C223.272 10.6167 224.505 10.75 225.705 11.05C227.238 11.3167 228.472 11.85 229.405 12.65C230.338 13.45 231.038 14.4167 231.505 15.55C232.005 16.6834 232.305 17.9334 232.405 19.3C232.505 20.6667 232.505 22.05 232.405 23.45C232.172 23.5167 231.722 23.5834 231.055 23.65C230.422 23.7167 229.655 23.7834 228.755 23.85C227.888 23.9167 226.955 23.9667 225.955 24C224.955 24.0334 223.988 24.05 223.055 24.05C222.155 24.05 221.338 24.0334 220.605 24ZM226.455 17.45C226.122 16.85 225.655 16.4 225.055 16.1C224.788 15.9334 224.522 15.8167 224.255 15.75C223.988 15.65 223.672 15.6 223.305 15.6C222.505 15.6 221.855 15.6834 221.355 15.85C220.855 16.0167 220.455 16.25 220.155 16.55C219.855 16.85 219.622 17.2 219.455 17.6C219.322 18 219.222 18.4167 219.155 18.85C219.088 19.2167 219.055 19.4834 219.055 19.65C219.088 19.7834 219.255 19.8834 219.555 19.95C219.855 19.9834 220.322 20 220.955 20C221.622 19.9667 222.588 19.95 223.855 19.95C224.722 19.95 225.372 19.9667 225.805 20C226.238 20.0334 226.538 20.05 226.705 20.05C226.905 20.0167 227.005 19.9667 227.005 19.9C227.005 19.8 227.005 19.6167 227.005 19.35C227.005 18.6834 226.822 18.05 226.455 17.45Z" fill="white"/>
<path d="M214.448 1.7C214.781 1.7 215.048 1.71667 215.248 1.75V1.8C214.315 4.8 213.215 7.73333 211.948 10.6C210.681 13.4667 209.365 16.3333 207.998 19.2C206.631 22.0333 205.298 24.8833 203.998 27.75C202.698 30.5833 201.548 33.4667 200.548 36.4C200.348 36.3667 200.148 36.35 199.948 36.35C199.748 36.35 199.531 36.35 199.298 36.35C198.598 36.35 197.831 36.3667 196.998 36.4C196.165 36.4667 195.365 36.5 194.598 36.5C194.398 36.5 194.198 36.5 193.998 36.5C193.798 36.5 193.598 36.4833 193.398 36.45H193.298C194.165 33.75 195.181 30.9333 196.348 28C197.515 25.0333 198.681 22.0833 199.848 19.15V19.05C199.481 17.5833 199.015 16.1333 198.448 14.7C197.881 13.2333 197.281 11.7833 196.648 10.35C196.048 8.91667 195.465 7.48333 194.898 6.05C194.331 4.61667 193.881 3.2 193.548 1.8C194.215 1.8 194.915 1.75 195.648 1.65C196.381 1.55 197.115 1.5 197.848 1.5C198.248 1.5 198.648 1.53333 199.048 1.6C199.448 1.63333 199.831 1.73333 200.198 1.9C200.365 2.63333 200.598 3.5 200.898 4.5C201.231 5.5 201.565 6.51667 201.898 7.55C202.265 8.58333 202.631 9.56667 202.998 10.5C203.398 11.4333 203.748 12.2167 204.048 12.85C204.381 12.25 204.715 11.4833 205.048 10.55C205.415 9.58333 205.765 8.58333 206.098 7.55C206.465 6.51667 206.815 5.5 207.148 4.5C207.481 3.5 207.798 2.66667 208.098 2C208.698 1.86667 209.498 1.78333 210.498 1.75C211.531 1.68333 212.481 1.65 213.348 1.65C213.748 1.65 214.115 1.66666 214.448 1.7Z" fill="white"/>
<path d="M168.21 0C168.776 0 169.276 0.033334 169.71 0.100002V11.05C169.71 12.15 169.676 13.3167 169.61 14.55C169.576 15.7833 169.61 16.7833 169.71 17.55C170.276 17.05 170.76 16.5 171.16 15.9C171.593 15.3 171.993 14.7 172.36 14.1C172.726 13.4667 173.093 12.8333 173.46 12.2C173.86 11.5667 174.31 10.9667 174.81 10.4C175.243 10.5667 175.81 10.6667 176.51 10.7C177.21 10.7 177.926 10.7 178.66 10.7C179.426 10.6667 180.176 10.6333 180.91 10.6C181.643 10.5333 182.243 10.5167 182.71 10.55C181.476 12.45 180.143 14.3333 178.71 16.2C177.276 18.0333 175.86 19.8833 174.46 21.75C175.96 24.1833 177.46 26.6 178.96 29C180.493 31.3667 181.893 33.8333 183.16 36.4C182.693 36.4 182.093 36.4167 181.36 36.45C180.66 36.5167 179.926 36.5667 179.16 36.6C178.393 36.6333 177.643 36.6333 176.91 36.6C176.21 36.5667 175.61 36.5 175.11 36.4C174.61 35.6 174.143 34.7833 173.71 33.95C173.31 33.1167 172.91 32.3 172.51 31.5C172.11 30.6667 171.676 29.85 171.21 29.05C170.776 28.25 170.276 27.4833 169.71 26.75C169.71 27.35 169.726 28.05 169.76 28.85C169.793 29.65 169.81 30.4833 169.81 31.35C169.81 32.2167 169.793 33.1 169.76 34C169.726 34.8667 169.643 35.6667 169.51 36.4C169.143 36.3667 168.676 36.3667 168.11 36.4C167.576 36.4 167.01 36.4167 166.41 36.45C165.81 36.4833 165.193 36.5 164.56 36.5C163.96 36.5 163.41 36.4667 162.91 36.4C162.676 30.2 162.626 24.1167 162.76 18.15C162.893 12.1833 162.943 6.16667 162.91 0.100002C163.41 0.100002 163.96 0.100002 164.56 0.100002C165.193 0.0666669 165.81 0.0499997 166.41 0.0499997C167.043 0.0166668 167.643 0 168.21 0Z" fill="white"/>
<path d="M155.808 11.25C156.575 11.2833 157.491 11.2833 158.558 11.25H159.408V11.4C159.375 15.4333 159.291 19.55 159.158 23.75C159.058 27.95 159.125 32.0667 159.358 36.1C159.191 36.3 158.775 36.4 158.108 36.4C157.441 36.4333 156.708 36.4333 155.908 36.4C155.141 36.4 154.408 36.3833 153.708 36.35C153.008 36.3167 152.541 36.3333 152.308 36.4C152.475 34.3 152.541 32.1667 152.508 30C152.508 27.8333 152.475 25.6833 152.408 23.55C152.341 21.4167 152.308 19.3167 152.308 17.25C152.308 15.15 152.408 13.1167 152.608 11.15V11.1C152.741 11.0667 152.958 11.0667 153.258 11.1C153.591 11.1333 153.841 11.15 154.008 11.15C154.441 11.1833 155.041 11.2167 155.808 11.25ZM152.458 4.25C152.391 3.18333 152.375 1.88333 152.408 0.349998L159.208 0.499997C159.208 0.699998 159.208 1.06666 159.208 1.6C159.241 2.1 159.258 2.66666 159.258 3.3C159.291 3.9 159.308 4.53333 159.308 5.2C159.341 5.83333 159.358 6.4 159.358 6.9C159.225 7.1 158.908 7.23333 158.408 7.3C157.941 7.36666 157.375 7.4 156.708 7.4C156.075 7.36666 155.391 7.33333 154.658 7.3C153.925 7.23333 153.241 7.21666 152.608 7.25C152.608 6.28333 152.558 5.28333 152.458 4.25Z" fill="white"/>
<path d="M142.203 22.6C142.236 21 142.286 19.55 142.353 18.25V11.55C142.886 11.6167 143.436 11.6333 144.003 11.6C144.603 11.5667 145.186 11.5333 145.753 11.5C146.32 11.4333 146.853 11.3833 147.353 11.35C147.886 11.3167 148.37 11.3333 148.803 11.4C148.903 12.2 148.953 13.1667 148.953 14.3C148.953 15.4 148.936 16.5167 148.903 17.65C148.903 18.75 148.886 19.8167 148.853 20.85C148.82 21.85 148.836 22.65 148.903 23.25C148.903 24.8833 148.903 26.45 148.903 27.95C148.936 29.4167 148.936 30.8833 148.903 32.35C148.903 33.7833 148.836 35.2333 148.703 36.7C148.603 38.2 148.42 39.75 148.153 41.35C147.72 42.3833 147.003 43.2 146.003 43.8C145.036 44.4 143.92 44.85 142.653 45.15C141.386 45.45 140.036 45.6333 138.603 45.7C137.17 45.8 135.786 45.8167 134.453 45.75C134.286 45.25 134.186 44.7 134.153 44.1C134.086 43.5 134.07 42.9 134.103 42.3C134.136 41.7 134.186 41.1167 134.253 40.55C134.32 39.9833 134.386 39.4667 134.453 39C135.02 39.0333 135.686 39.0333 136.453 39C137.186 38.9667 137.92 38.8667 138.653 38.7C139.386 38.5667 140.07 38.3667 140.703 38.1C141.336 37.8333 141.82 37.4667 142.153 37C142.186 35.6 142.203 34.0833 142.203 32.45C142.203 30.8167 142.203 29.1667 142.203 27.5C142.203 25.8333 142.203 24.2 142.203 22.6ZM142.103 4.25C142.036 3.18333 142.02 1.88333 142.053 0.349998L148.703 0.499997C148.703 0.699998 148.703 1.06666 148.703 1.6C148.736 2.1 148.753 2.66666 148.753 3.3C148.786 3.9 148.803 4.53333 148.803 5.2C148.836 5.83333 148.853 6.4 148.853 6.9C148.72 7.1 148.42 7.23333 147.953 7.3C147.486 7.36666 146.936 7.4 146.303 7.4C145.703 7.36666 145.036 7.33333 144.303 7.3C143.57 7.23333 142.886 7.21666 142.253 7.25C142.253 6.28333 142.203 5.28333 142.103 4.25Z" fill="white"/>
<path d="M119.841 15.1C120.041 14.4667 120.191 13.9667 120.291 13.6C120.524 13.1 120.891 12.6667 121.391 12.3C121.924 11.9333 122.524 11.6333 123.191 11.4C123.891 11.1333 124.624 10.95 125.391 10.85C126.191 10.75 126.991 10.7 127.791 10.7C128.457 10.7667 129.091 10.7833 129.691 10.75C130.324 10.6833 130.991 10.6833 131.691 10.75C132.757 10.8167 133.774 11.0333 134.741 11.4C135.707 11.7333 136.541 12.2333 137.241 12.9C137.707 13.2 138.074 13.6833 138.341 14.35C138.608 15.0167 138.807 15.8 138.941 16.7C139.074 17.5667 139.157 18.5333 139.191 19.6C139.224 20.6333 139.257 21.7 139.291 22.8C139.257 23.7667 139.208 24.8667 139.141 26.1C139.108 27.3333 139.024 28.5167 138.891 29.65C138.791 30.7833 138.641 31.8 138.441 32.7C138.274 33.6 138.024 34.2167 137.691 34.55C137.124 35.35 136.374 35.9167 135.441 36.25C134.541 36.5833 133.557 36.7833 132.491 36.85C131.424 36.95 130.324 36.95 129.191 36.85C128.057 36.7833 127.024 36.75 126.091 36.75C124.391 36.45 122.957 35.7167 121.791 34.55C120.891 33.75 120.274 32.75 119.941 31.55C119.608 30.35 119.408 29.1 119.341 27.8C119.274 26.4667 119.257 25.1333 119.291 23.8C119.357 22.4667 119.341 21.25 119.241 20.15C119.241 19.55 119.257 18.9667 119.291 18.4C119.324 17.8 119.391 17.1833 119.491 16.55C119.524 16.1833 119.641 15.7 119.841 15.1ZM128.241 18.4C127.541 18.6 126.974 18.9667 126.541 19.5C126.341 19.6333 126.191 19.9667 126.091 20.5C125.958 21.5667 125.891 22.6333 125.891 23.7C125.891 24.7333 125.857 25.8333 125.791 27C125.757 27.7667 125.957 28.3667 126.391 28.8C126.824 29.2 127.341 29.4833 127.941 29.65C128.574 29.7833 129.224 29.8167 129.891 29.75C130.558 29.65 131.107 29.4833 131.541 29.25C132.107 28.9833 132.491 28.4333 132.691 27.6C132.824 26.5333 132.924 25.4667 132.991 24.4C133.091 23.3 133.041 22.2667 132.841 21.3C132.674 20.1333 132.191 19.2833 131.391 18.75C130.591 18.2167 129.541 18.1 128.241 18.4Z" fill="white"/>
<path d="M109.238 9.15C109.238 6.11666 109.388 3.08333 109.688 0.0499954L116.488 0.199996C116.488 1.56666 116.471 3.21666 116.438 5.15C116.405 7.08333 116.371 9.14999 116.338 11.35C116.305 13.55 116.271 15.8333 116.238 18.2C116.238 20.5667 116.238 22.85 116.238 25.05C116.238 27.25 116.255 29.3167 116.288 31.25C116.321 33.15 116.371 34.7667 116.438 36.1C116.271 36.3 115.855 36.4 115.188 36.4C114.521 36.4333 113.788 36.4333 112.988 36.4C112.221 36.4 111.488 36.3833 110.788 36.35C110.088 36.3167 109.621 36.3333 109.388 36.4C109.621 33.4 109.705 30.3833 109.638 27.35C109.605 24.3167 109.538 21.2833 109.438 18.25C109.338 15.2167 109.271 12.1833 109.238 9.15Z" fill="white"/>
<path d="M87.126 15.1C87.326 14.4667 87.476 13.9667 87.576 13.6C87.8093 13.1 88.176 12.6667 88.676 12.3C89.2093 11.9333 89.8093 11.6333 90.476 11.4C91.176 11.1333 91.9093 10.95 92.676 10.85C93.476 10.75 94.276 10.7 95.076 10.7C95.7427 10.7667 96.376 10.7833 96.976 10.75C97.6093 10.6833 98.276 10.6833 98.976 10.75C100.043 10.8167 101.059 11.0333 102.026 11.4C102.993 11.7333 103.826 12.2333 104.526 12.9C104.993 13.2 105.359 13.6833 105.626 14.35C105.893 15.0167 106.093 15.8 106.226 16.7C106.359 17.5667 106.443 18.5333 106.476 19.6C106.509 20.6333 106.543 21.7 106.576 22.8C106.543 23.7667 106.493 24.8667 106.426 26.1C106.393 27.3333 106.309 28.5167 106.176 29.65C106.076 30.7833 105.926 31.8 105.726 32.7C105.559 33.6 105.309 34.2167 104.976 34.55C104.409 35.35 103.659 35.9167 102.726 36.25C101.826 36.5833 100.843 36.7833 99.776 36.85C98.7093 36.95 97.6093 36.95 96.476 36.85C95.3427 36.7833 94.3093 36.75 93.376 36.75C91.676 36.45 90.2427 35.7167 89.076 34.55C88.176 33.75 87.5593 32.75 87.226 31.55C86.8927 30.35 86.6927 29.1 86.626 27.8C86.5593 26.4667 86.5427 25.1333 86.576 23.8C86.6427 22.4667 86.626 21.25 86.526 20.15C86.526 19.55 86.5427 18.9667 86.576 18.4C86.6093 17.8 86.676 17.1833 86.776 16.55C86.8093 16.1833 86.926 15.7 87.126 15.1ZM95.526 18.4C94.826 18.6 94.2593 18.9667 93.826 19.5C93.626 19.6333 93.476 19.9667 93.376 20.5C93.2427 21.5667 93.176 22.6333 93.176 23.7C93.176 24.7333 93.1427 25.8333 93.076 27C93.0427 27.7667 93.2427 28.3667 93.676 28.8C94.1093 29.2 94.626 29.4833 95.226 29.65C95.8593 29.7833 96.5093 29.8167 97.176 29.75C97.8427 29.65 98.3927 29.4833 98.826 29.25C99.3927 28.9833 99.776 28.4333 99.976 27.6C100.109 26.5333 100.209 25.4667 100.276 24.4C100.376 23.3 100.326 22.2667 100.126 21.3C99.9593 20.1333 99.476 19.2833 98.676 18.75C97.876 18.2167 96.826 18.1 95.526 18.4Z" fill="white"/>
<path d="M71.2162 12.85C71.2162 13.2167 71.2329 13.6333 71.2662 14.1C71.4329 14 71.6329 13.8833 71.8662 13.75C72.1329 13.6167 72.3495 13.4833 72.5162 13.35C73.2162 12.85 73.9996 12.45 74.8662 12.15C75.7329 11.85 76.6162 11.6833 77.5162 11.65C78.4495 11.6167 79.3496 11.7167 80.2162 11.95C81.0829 12.1833 81.8662 12.6 82.5662 13.2C82.8995 13.5 83.1495 14.1333 83.3162 15.1C83.5162 16.0333 83.6329 17.1667 83.6662 18.5C83.7329 19.8333 83.7496 21.3 83.7162 22.9C83.7162 24.4667 83.6995 26.0667 83.6662 27.7C83.6329 29.3 83.5995 30.85 83.5662 32.35C83.5329 33.85 83.5496 35.1667 83.6162 36.3C82.4496 36.4667 81.3996 36.5333 80.4662 36.5C79.5662 36.5 78.5329 36.5 77.3662 36.5C77.2996 35.7333 77.2662 34.8667 77.2662 33.9C77.2662 32.9333 77.2662 31.9333 77.2662 30.9C77.2995 29.8667 77.2995 28.8333 77.2662 27.8C77.2662 26.7667 77.2329 25.8 77.1662 24.9C77.1329 24.5 77.0995 24.0667 77.0662 23.6C77.0329 23.1 76.9662 22.6167 76.8662 22.15C76.7996 21.6833 76.6829 21.2667 76.5162 20.9C76.3829 20.5333 76.1829 20.25 75.9162 20.05C75.8829 20.0167 75.8495 20 75.8162 20C75.7829 20 75.7496 19.9833 75.7162 19.95C75.4496 19.8167 75.0495 19.7167 74.5162 19.65C74.0162 19.55 73.5162 19.5833 73.0162 19.75C72.5162 19.8833 72.0662 20.1833 71.6662 20.65C71.2662 21.0833 71.0329 21.75 70.9662 22.65C70.8996 23.8167 70.8829 24.9667 70.9162 26.1C70.9495 27.2 70.9829 28.3167 71.0162 29.45C71.0829 30.55 71.1162 31.65 71.1162 32.75C71.1162 33.85 71.0495 34.95 70.9162 36.05V36.25C70.3495 36.4167 69.8495 36.5167 69.4162 36.55C69.0162 36.5833 68.5995 36.5833 68.1662 36.55C67.7329 36.55 67.2496 36.5333 66.7162 36.5C66.1829 36.4667 65.5162 36.4833 64.7162 36.55C64.7162 32.45 64.6662 28.35 64.5662 24.25C64.4995 20.15 64.5329 15.9 64.6662 11.5C65.0662 11.5333 65.3995 11.5667 65.6662 11.6C65.9329 11.6 66.1829 11.6 66.4162 11.6C66.6495 11.6 66.8995 11.6 67.1662 11.6C67.4329 11.5667 67.7662 11.5333 68.1662 11.5C68.2995 11.5 68.5329 11.4833 68.8662 11.45C69.1996 11.3833 69.5329 11.3333 69.8662 11.3C70.1996 11.2667 70.4995 11.2667 70.7662 11.3C71.0329 11.3 71.1662 11.35 71.1662 11.45C71.2329 12.0167 71.2496 12.4833 71.2162 12.85Z" fill="white"/>
<path d="M48.2877 0C48.8543 0 49.3543 0.033334 49.7877 0.100002V11.05C49.7877 12.15 49.7543 13.3167 49.6877 14.55C49.6543 15.7833 49.6877 16.7833 49.7877 17.55C50.3543 17.05 50.8377 16.5 51.2377 15.9C51.671 15.3 52.071 14.7 52.4377 14.1C52.8043 13.4667 53.171 12.8333 53.5377 12.2C53.9377 11.5667 54.3877 10.9667 54.8877 10.4C55.321 10.5667 55.8877 10.6667 56.5877 10.7C57.2877 10.7 58.0043 10.7 58.7377 10.7C59.5043 10.6667 60.2543 10.6333 60.9877 10.6C61.721 10.5333 62.321 10.5167 62.7877 10.55C61.5543 12.45 60.221 14.3333 58.7877 16.2C57.3543 18.0333 55.9377 19.8833 54.5377 21.75C56.0377 24.1833 57.5377 26.6 59.0377 29C60.571 31.3667 61.971 33.8333 63.2377 36.4C62.771 36.4 62.171 36.4167 61.4377 36.45C60.7377 36.5167 60.0043 36.5667 59.2377 36.6C58.471 36.6333 57.721 36.6333 56.9877 36.6C56.2877 36.5667 55.6877 36.5 55.1877 36.4C54.6877 35.6 54.221 34.7833 53.7877 33.95C53.3877 33.1167 52.9877 32.3 52.5877 31.5C52.1877 30.6667 51.7543 29.85 51.2877 29.05C50.8543 28.25 50.3543 27.4833 49.7877 26.75C49.7877 27.35 49.8043 28.05 49.8377 28.85C49.871 29.65 49.8877 30.4833 49.8877 31.35C49.8877 32.2167 49.871 33.1 49.8377 34C49.8043 34.8667 49.721 35.6667 49.5877 36.4C49.221 36.3667 48.7543 36.3667 48.1877 36.4C47.6543 36.4 47.0877 36.4167 46.4877 36.45C45.8877 36.4833 45.271 36.5 44.6377 36.5C44.0377 36.5 43.4877 36.4667 42.9877 36.4C42.7543 30.2 42.7043 24.1167 42.8377 18.15C42.971 12.1833 43.021 6.16667 42.9877 0.100002C43.4877 0.100002 44.0377 0.100002 44.6377 0.100002C45.271 0.0666669 45.8877 0.0499997 46.4877 0.0499997C47.121 0.0166668 47.721 0 48.2877 0Z" fill="white"/>
<path d="M28.2711 24C27.5378 23.9667 27.0045 23.9167 26.6711 23.85V24.75C26.7045 25.75 26.7378 26.5667 26.7711 27.2C26.8378 27.8334 27.0545 28.45 27.4211 29.05C27.8211 29.8167 28.3878 30.3834 29.1211 30.75C29.8545 31.1167 30.5711 31.2334 31.2711 31.1C31.9711 30.9667 32.5545 30.5667 33.0211 29.9C33.5211 29.2 33.7378 28.1667 33.6711 26.8C34.0045 26.8334 34.4545 26.85 35.0211 26.85C35.5878 26.8167 36.1711 26.7834 36.7711 26.75C37.4045 26.7167 38.0045 26.7167 38.5711 26.75C39.1378 26.75 39.6045 26.8 39.9711 26.9C39.9045 27.7667 39.8378 28.6167 39.7711 29.45C39.7045 30.2834 39.6211 31.0667 39.5211 31.8C39.4211 32.5 39.2878 33.1167 39.1211 33.65C38.9878 34.15 38.8045 34.5 38.5711 34.7C38.0045 35.5 37.2711 36.0667 36.3711 36.4C35.4711 36.7334 34.4878 36.9334 33.4211 37C32.3545 37.0667 31.2545 37.0667 30.1211 37C29.0211 36.9334 28.0045 36.9 27.0711 36.9C26.1378 36.7667 25.2711 36.4667 24.4711 36C23.5711 35.3667 22.8211 34.55 22.2211 33.55C21.6211 32.5167 21.1378 31.4 20.7711 30.2C20.4045 28.9667 20.1545 27.6667 20.0211 26.3C19.8878 24.9334 19.8545 23.5667 19.9211 22.2C20.0211 20.9667 20.1211 19.7834 20.2211 18.65C20.3545 17.4834 20.6211 16.35 21.0211 15.25C21.4545 14.2834 22.1211 13.4667 23.0211 12.8C23.9211 12.1 24.9378 11.5834 26.0711 11.25C27.2045 10.8834 28.4045 10.6834 29.6711 10.65C30.9378 10.6167 32.1711 10.75 33.3711 11.05C34.9045 11.3167 36.1378 11.85 37.0711 12.65C38.0045 13.45 38.7045 14.4167 39.1711 15.55C39.6711 16.6834 39.9711 17.9334 40.0711 19.3C40.1711 20.6667 40.1711 22.05 40.0711 23.45C39.8378 23.5167 39.3878 23.5834 38.7211 23.65C38.0878 23.7167 37.3211 23.7834 36.4211 23.85C35.5545 23.9167 34.6211 23.9667 33.6211 24C32.6211 24.0334 31.6545 24.05 30.7211 24.05C29.8211 24.05 29.0045 24.0334 28.2711 24ZM34.1211 17.45C33.7878 16.85 33.3211 16.4 32.7211 16.1C32.4545 15.9334 32.1878 15.8167 31.9211 15.75C31.6545 15.65 31.3378 15.6 30.9711 15.6C30.1711 15.6 29.5211 15.6834 29.0211 15.85C28.5211 16.0167 28.1211 16.25 27.8211 16.55C27.5211 16.85 27.2878 17.2 27.1211 17.6C26.9878 18 26.8878 18.4167 26.8211 18.85C26.7545 19.2167 26.7211 19.4834 26.7211 19.65C26.7545 19.7834 26.9211 19.8834 27.2211 19.95C27.5211 19.9834 27.9878 20 28.6211 20C29.2878 19.9667 30.2545 19.95 31.5211 19.95C32.3878 19.95 33.0378 19.9667 33.4711 20C33.9045 20.0334 34.2045 20.05 34.3711 20.05C34.5711 20.0167 34.6711 19.9667 34.6711 19.9C34.6711 19.8 34.6711 19.6167 34.6711 19.35C34.6711 18.6834 34.4878 18.05 34.1211 17.45Z" fill="white"/>
<path d="M10.5838 1.15C14.2171 1.11667 17.7505 1.28334 21.1838 1.65C21.2505 2.75 21.2671 4.01667 21.2338 5.45C21.2338 6.88334 21.1505 8.2 20.9838 9.4C20.3505 9.26667 19.5671 9.21667 18.6338 9.25C17.7005 9.28333 16.4505 9.33334 14.8838 9.4H14.7838H14.7338C14.7338 9.43334 14.7171 9.46667 14.6838 9.5C14.6838 9.5 14.6838 9.51667 14.6838 9.55C14.6505 9.71667 14.6171 9.98334 14.5838 10.35C14.5838 10.6833 14.5838 11.2333 14.5838 12C14.5838 12.7333 14.5838 13.7167 14.5838 14.95C14.6171 16.15 14.6505 17.7167 14.6838 19.65C14.7171 21.55 14.7505 23.85 14.7838 26.55C14.8171 29.2167 14.8671 32.3667 14.9338 36V36.05V36.1C14.3338 36.2 13.6671 36.2667 12.9338 36.3C12.2338 36.3 11.5171 36.3 10.7838 36.3C10.0838 36.3 9.3838 36.3 8.6838 36.3C7.9838 36.3 7.3338 36.35 6.7338 36.45C6.70047 36.3167 6.70047 35.7167 6.7338 34.65C6.76713 33.5833 6.7838 32 6.7838 29.9C6.81713 27.7667 6.80047 25.05 6.7338 21.75C6.70047 18.45 6.5838 14.4667 6.3838 9.8L6.3338 9.75C5.9338 9.55 5.4338 9.43334 4.8338 9.4C4.2338 9.33334 3.6338 9.3 3.0338 9.3C2.4338 9.26667 1.8838 9.25 1.3838 9.25C0.883798 9.25 0.533798 9.21667 0.333798 9.15C0.267131 9.01667 0.200465 8.68334 0.133798 8.15C0.100465 7.61667 0.0671316 6.98334 0.0337982 6.25C0.0337982 5.48334 0.0337982 4.66667 0.0337982 3.8C0.0337982 2.93334 0.0671316 2.1 0.133798 1.3C0.133798 1.26667 0.117132 1.25 0.0837982 1.25C0.0837982 1.25 0.0837982 1.23334 0.0837982 1.2C3.4838 1.16667 6.9838 1.15 10.5838 1.15Z" fill="white"/>
</svg>
